<mxfile host="app.diagrams.net" modified="2024-04-07T12:01:52.422Z" agent="Mozilla/5.0 (Windows NT 10.0; Win64; x64) AppleWebKit/537.36 (KHTML, like Gecko) Chrome/123.0.0.0 Safari/537.36" etag="DugJjyGEARIcRr3qyHo8" version="24.1.0" type="github">
  <diagram name="第 1 页" id="WCewRWauk1nVYLZJlhGb">
    <mxGraphModel dx="1562" dy="810" grid="1" gridSize="10" guides="1" tooltips="1" connect="1" arrows="1" fold="1" page="1" pageScale="1" pageWidth="1169" pageHeight="827" math="0" shadow="0">
      <root>
        <mxCell id="0" />
        <mxCell id="1" parent="0" />
        <mxCell id="nfzqInSNyX3scxHbq8X1-1" value="" style="rounded=0;whiteSpace=wrap;html=1;movable=1;resizable=1;rotatable=1;deletable=1;editable=1;locked=0;connectable=1;fillColor=#1ba1e2;fontColor=#ffffff;strokeColor=#006EAF;" vertex="1" parent="1">
          <mxGeometry x="415" y="110" width="370" height="520" as="geometry" />
        </mxCell>
        <mxCell id="nfzqInSNyX3scxHbq8X1-3" value="&lt;b&gt;&lt;font style=&quot;font-size: 22px;&quot;&gt;ACID实现原理&lt;/font&gt;&lt;/b&gt;" style="text;html=1;align=center;verticalAlign=middle;whiteSpace=wrap;rounded=0;" vertex="1" parent="1">
          <mxGeometry x="450" y="20" width="285" height="30" as="geometry" />
        </mxCell>
        <mxCell id="nfzqInSNyX3scxHbq8X1-4" value="&lt;h1 style=&quot;margin-top: 0px;&quot;&gt;Redo Log（重做日志）&lt;/h1&gt;&lt;p style=&quot;font-size: 14px;&quot;&gt;记录的是&lt;b&gt;物理日志,&lt;/b&gt;用于数据奔溃后继续可以把事务持久化储存在磁盘上&lt;/p&gt;" style="text;html=1;whiteSpace=wrap;overflow=hidden;rounded=0;" vertex="1" parent="1">
          <mxGeometry x="800" y="110" width="180" height="150" as="geometry" />
        </mxCell>
        <mxCell id="nfzqInSNyX3scxHbq8X1-5" value="" style="rounded=0;whiteSpace=wrap;html=1;movable=1;resizable=1;rotatable=1;deletable=1;editable=1;locked=0;connectable=1;fillColor=#60a917;fontColor=#ffffff;strokeColor=#2D7600;" vertex="1" parent="1">
          <mxGeometry x="40" y="110" width="365" height="520" as="geometry" />
        </mxCell>
        <mxCell id="nfzqInSNyX3scxHbq8X1-9" style="edgeStyle=orthogonalEdgeStyle;rounded=0;orthogonalLoop=1;jettySize=auto;html=1;entryX=1;entryY=0.5;entryDx=0;entryDy=0;" edge="1" parent="1" source="nfzqInSNyX3scxHbq8X1-6" target="nfzqInSNyX3scxHbq8X1-13">
          <mxGeometry relative="1" as="geometry">
            <mxPoint x="295" y="185" as="targetPoint" />
          </mxGeometry>
        </mxCell>
        <mxCell id="nfzqInSNyX3scxHbq8X1-12" value="&lt;b&gt;&lt;font style=&quot;font-size: 15px;&quot;&gt;1.加载数据&lt;/font&gt;&lt;/b&gt;" style="edgeLabel;html=1;align=center;verticalAlign=middle;resizable=0;points=[];" vertex="1" connectable="0" parent="nfzqInSNyX3scxHbq8X1-9">
          <mxGeometry x="-0.0699" y="1" relative="1" as="geometry">
            <mxPoint x="-38" y="-1" as="offset" />
          </mxGeometry>
        </mxCell>
        <mxCell id="nfzqInSNyX3scxHbq8X1-22" value="&lt;b&gt;&lt;font style=&quot;font-size: 15px;&quot;&gt;4.持久化数据&lt;/font&gt;&lt;/b&gt;" style="edgeLabel;html=1;align=center;verticalAlign=middle;resizable=0;points=[];" vertex="1" connectable="0" parent="nfzqInSNyX3scxHbq8X1-9">
          <mxGeometry x="-0.0699" y="1" relative="1" as="geometry">
            <mxPoint x="-38" y="324" as="offset" />
          </mxGeometry>
        </mxCell>
        <mxCell id="nfzqInSNyX3scxHbq8X1-30" value="&lt;b&gt;&lt;font style=&quot;font-size: 15px;&quot;&gt;2.修改数据&lt;/font&gt;&lt;/b&gt;" style="edgeLabel;html=1;align=center;verticalAlign=middle;resizable=0;points=[];" vertex="1" connectable="0" parent="nfzqInSNyX3scxHbq8X1-9">
          <mxGeometry x="-0.0699" y="1" relative="1" as="geometry">
            <mxPoint x="-297" y="74" as="offset" />
          </mxGeometry>
        </mxCell>
        <mxCell id="nfzqInSNyX3scxHbq8X1-31" value="&lt;b&gt;&lt;font style=&quot;font-size: 15px;&quot;&gt;3.写入缓存&lt;/font&gt;&lt;/b&gt;" style="edgeLabel;html=1;align=center;verticalAlign=middle;resizable=0;points=[];" vertex="1" connectable="0" parent="nfzqInSNyX3scxHbq8X1-9">
          <mxGeometry x="-0.0699" y="1" relative="1" as="geometry">
            <mxPoint x="-297" y="244" as="offset" />
          </mxGeometry>
        </mxCell>
        <mxCell id="nfzqInSNyX3scxHbq8X1-33" value="&lt;b&gt;&lt;font style=&quot;font-size: 15px;&quot;&gt;3.写入缓存&lt;/font&gt;&lt;/b&gt;" style="edgeLabel;html=1;align=center;verticalAlign=middle;resizable=0;points=[];" vertex="1" connectable="0" parent="nfzqInSNyX3scxHbq8X1-9">
          <mxGeometry x="-0.0699" y="1" relative="1" as="geometry">
            <mxPoint x="-177" y="194" as="offset" />
          </mxGeometry>
        </mxCell>
        <mxCell id="nfzqInSNyX3scxHbq8X1-34" value="&lt;b&gt;&lt;font style=&quot;font-size: 15px;&quot;&gt;4.持久化数据&lt;/font&gt;&lt;/b&gt;" style="edgeLabel;html=1;align=center;verticalAlign=middle;resizable=0;points=[];" vertex="1" connectable="0" parent="nfzqInSNyX3scxHbq8X1-9">
          <mxGeometry x="-0.0699" y="1" relative="1" as="geometry">
            <mxPoint x="33" y="144" as="offset" />
          </mxGeometry>
        </mxCell>
        <mxCell id="nfzqInSNyX3scxHbq8X1-6" value="数据库" style="shape=datastore;whiteSpace=wrap;html=1;rotation=0;fillColor=#dae8fc;strokeColor=#6c8ebf;" vertex="1" parent="1">
          <mxGeometry x="635" y="130" width="110" height="110" as="geometry" />
        </mxCell>
        <mxCell id="nfzqInSNyX3scxHbq8X1-7" value="&lt;b&gt;&lt;font style=&quot;font-size: 18px;&quot;&gt;内存&lt;/font&gt;&lt;/b&gt;" style="text;html=1;align=center;verticalAlign=middle;whiteSpace=wrap;rounded=0;movable=1;resizable=1;rotatable=1;deletable=1;editable=1;locked=0;connectable=1;" vertex="1" parent="1">
          <mxGeometry x="335" y="590" width="60" height="30" as="geometry" />
        </mxCell>
        <mxCell id="nfzqInSNyX3scxHbq8X1-8" value="&lt;b&gt;&lt;font style=&quot;font-size: 18px;&quot;&gt;磁盘&lt;/font&gt;&lt;/b&gt;" style="text;html=1;align=center;verticalAlign=middle;whiteSpace=wrap;rounded=0;movable=1;resizable=1;rotatable=1;deletable=1;editable=1;locked=0;connectable=1;" vertex="1" parent="1">
          <mxGeometry x="725" y="590" width="60" height="30" as="geometry" />
        </mxCell>
        <mxCell id="nfzqInSNyX3scxHbq8X1-21" style="edgeStyle=orthogonalEdgeStyle;rounded=0;orthogonalLoop=1;jettySize=auto;html=1;exitX=0.5;exitY=0;exitDx=0;exitDy=0;exitPerimeter=0;entryX=1;entryY=0.5;entryDx=0;entryDy=0;" edge="1" parent="1" source="nfzqInSNyX3scxHbq8X1-11" target="nfzqInSNyX3scxHbq8X1-6">
          <mxGeometry relative="1" as="geometry" />
        </mxCell>
        <mxCell id="nfzqInSNyX3scxHbq8X1-11" value="&lt;b style=&quot;font-size: 17px;&quot;&gt;&lt;font style=&quot;font-size: 17px;&quot;&gt;Redo Log&lt;/font&gt;&lt;/b&gt;&lt;div style=&quot;font-size: 17px;&quot;&gt;&lt;b style=&quot;&quot;&gt;&lt;font style=&quot;font-size: 17px;&quot;&gt;File&lt;/font&gt;&lt;/b&gt;&lt;/div&gt;" style="whiteSpace=wrap;html=1;shape=mxgraph.basic.document;fillColor=#d5e8d4;strokeColor=#82b366;" vertex="1" parent="1">
          <mxGeometry x="645" y="470" width="90" height="120" as="geometry" />
        </mxCell>
        <mxCell id="nfzqInSNyX3scxHbq8X1-16" style="edgeStyle=orthogonalEdgeStyle;rounded=0;orthogonalLoop=1;jettySize=auto;html=1;" edge="1" parent="1" source="nfzqInSNyX3scxHbq8X1-13" target="nfzqInSNyX3scxHbq8X1-15">
          <mxGeometry relative="1" as="geometry" />
        </mxCell>
        <mxCell id="nfzqInSNyX3scxHbq8X1-13" value="&lt;b&gt;&lt;font style=&quot;font-size: 18px;&quot;&gt;查询数据&lt;/font&gt;&lt;/b&gt;" style="rounded=1;whiteSpace=wrap;html=1;" vertex="1" parent="1">
          <mxGeometry x="70" y="142.5" width="150" height="85" as="geometry" />
        </mxCell>
        <mxCell id="nfzqInSNyX3scxHbq8X1-18" value="" style="edgeStyle=orthogonalEdgeStyle;rounded=0;orthogonalLoop=1;jettySize=auto;html=1;" edge="1" parent="1" source="nfzqInSNyX3scxHbq8X1-15" target="nfzqInSNyX3scxHbq8X1-17">
          <mxGeometry relative="1" as="geometry" />
        </mxCell>
        <mxCell id="nfzqInSNyX3scxHbq8X1-25" value="" style="edgeStyle=orthogonalEdgeStyle;rounded=0;orthogonalLoop=1;jettySize=auto;html=1;" edge="1" parent="1" source="nfzqInSNyX3scxHbq8X1-15" target="nfzqInSNyX3scxHbq8X1-24">
          <mxGeometry relative="1" as="geometry" />
        </mxCell>
        <mxCell id="nfzqInSNyX3scxHbq8X1-15" value="&lt;b&gt;&lt;font style=&quot;font-size: 18px;&quot;&gt;修改数据&lt;/font&gt;&lt;/b&gt;" style="rounded=1;whiteSpace=wrap;html=1;" vertex="1" parent="1">
          <mxGeometry x="70" y="300" width="150" height="85" as="geometry" />
        </mxCell>
        <mxCell id="nfzqInSNyX3scxHbq8X1-20" style="edgeStyle=orthogonalEdgeStyle;rounded=0;orthogonalLoop=1;jettySize=auto;html=1;" edge="1" parent="1" source="nfzqInSNyX3scxHbq8X1-17" target="nfzqInSNyX3scxHbq8X1-11">
          <mxGeometry relative="1" as="geometry" />
        </mxCell>
        <mxCell id="nfzqInSNyX3scxHbq8X1-17" value="&lt;b style=&quot;font-size: 16px;&quot;&gt;&lt;font style=&quot;font-size: 16px;&quot;&gt;写入缓存&lt;/font&gt;&lt;/b&gt;&lt;div style=&quot;font-size: 16px;&quot;&gt;&lt;b&gt;&lt;font style=&quot;font-size: 16px;&quot;&gt;Redo Log&lt;/font&gt;&lt;/b&gt;&lt;/div&gt;&lt;div style=&quot;font-size: 16px;&quot;&gt;&lt;b style=&quot;&quot;&gt;&lt;font style=&quot;font-size: 16px;&quot;&gt;Buffer&lt;/font&gt;&lt;/b&gt;&lt;/div&gt;" style="whiteSpace=wrap;html=1;rounded=1;" vertex="1" parent="1">
          <mxGeometry x="65" y="470" width="160" height="80" as="geometry" />
        </mxCell>
        <mxCell id="nfzqInSNyX3scxHbq8X1-26" style="edgeStyle=orthogonalEdgeStyle;rounded=0;orthogonalLoop=1;jettySize=auto;html=1;entryX=0;entryY=0.5;entryDx=0;entryDy=0;entryPerimeter=0;" edge="1" parent="1" source="nfzqInSNyX3scxHbq8X1-24" target="nfzqInSNyX3scxHbq8X1-27">
          <mxGeometry relative="1" as="geometry">
            <mxPoint x="525" y="343" as="targetPoint" />
          </mxGeometry>
        </mxCell>
        <mxCell id="nfzqInSNyX3scxHbq8X1-24" value="写入缓存&lt;div&gt;Undo Log&lt;/div&gt;&lt;div&gt;Buffer&lt;/div&gt;" style="whiteSpace=wrap;html=1;rounded=1;fontStyle=1" vertex="1" parent="1">
          <mxGeometry x="275" y="312.5" width="120" height="60" as="geometry" />
        </mxCell>
        <mxCell id="nfzqInSNyX3scxHbq8X1-28" style="edgeStyle=orthogonalEdgeStyle;rounded=0;orthogonalLoop=1;jettySize=auto;html=1;" edge="1" parent="1" source="nfzqInSNyX3scxHbq8X1-27" target="nfzqInSNyX3scxHbq8X1-6">
          <mxGeometry relative="1" as="geometry" />
        </mxCell>
        <mxCell id="nfzqInSNyX3scxHbq8X1-27" value="&lt;b style=&quot;font-size: 17px;&quot;&gt;&lt;font style=&quot;font-size: 17px;&quot;&gt;Undo Log&lt;/font&gt;&lt;/b&gt;&lt;div style=&quot;font-size: 17px;&quot;&gt;&lt;b style=&quot;&quot;&gt;&lt;font style=&quot;font-size: 17px;&quot;&gt;File&lt;/font&gt;&lt;/b&gt;&lt;/div&gt;" style="whiteSpace=wrap;html=1;shape=mxgraph.basic.document;fillColor=#d5e8d4;strokeColor=#82b366;" vertex="1" parent="1">
          <mxGeometry x="545" y="297.25" width="70" height="90.5" as="geometry" />
        </mxCell>
        <mxCell id="nfzqInSNyX3scxHbq8X1-35" value="&lt;h1 style=&quot;margin-top: 0px;&quot;&gt;Undo Log（撤销日志）&lt;/h1&gt;&lt;p style=&quot;font-size: 15px;&quot;&gt;记录的是&lt;b&gt;逻辑日志,&lt;/b&gt;用于&lt;span style=&quot;color: rgb(51, 51, 51); background-color: initial;&quot;&gt;&lt;font style=&quot;font-size: 15px;&quot;&gt;用来回滚事务时，恢复到修改前的数据&lt;/font&gt;&lt;/span&gt;&lt;/p&gt;" style="text;html=1;whiteSpace=wrap;overflow=hidden;rounded=0;" vertex="1" parent="1">
          <mxGeometry x="800" y="267.5" width="180" height="150" as="geometry" />
        </mxCell>
        <mxCell id="nfzqInSNyX3scxHbq8X1-37" value="&lt;h1 style=&quot;margin-top: 0px;&quot;&gt;MVCC（多版本并发控制）&lt;/h1&gt;&lt;p style=&quot;font-size: 15px;&quot;&gt;记录某个时间节点的快照，实现不同事物之间的隔离。实现原理是通过两个隐藏列，&lt;b&gt;trx_id(最近一次提交事物的ID)&lt;/b&gt;,&lt;b&gt;roll_pointer（上个版本的地址&lt;/b&gt;）&lt;span style=&quot;color: rgb(51, 51, 51); font-size: 14px; background-color: initial;&quot;&gt;建立一个版本链。并在事务中读取的时候生成一个&lt;b&gt;ReadView（读视图）&lt;/b&gt;，在Read Committed隔离级别下，每次读取都会&lt;b&gt;生成一个读视图&lt;/b&gt;，而在Repeatable Read隔离级别下，只会在第一次读取时生成一个读视图。&lt;/span&gt;&lt;/p&gt;" style="text;html=1;whiteSpace=wrap;overflow=hidden;rounded=0;" vertex="1" parent="1">
          <mxGeometry x="800" y="440" width="360" height="200" as="geometry" />
        </mxCell>
        <mxCell id="nfzqInSNyX3scxHbq8X1-38" style="edgeStyle=orthogonalEdgeStyle;rounded=0;orthogonalLoop=1;jettySize=auto;html=1;exitX=0.5;exitY=1;exitDx=0;exitDy=0;" edge="1" parent="1" source="nfzqInSNyX3scxHbq8X1-4" target="nfzqInSNyX3scxHbq8X1-4">
          <mxGeometry relative="1" as="geometry" />
        </mxCell>
      </root>
    </mxGraphModel>
  </diagram>
</mxfile>
